<svg width="44" height="56" viewBox="0 0 44 56" fill="none" xmlns="http://www.w3.org/2000/svg">
<path fill-rule="evenodd" clip-rule="evenodd" d="M6.03469 45.7735L0.688605 51.1183C-0.281025 52.0864 -0.20061 53.7349 0.765928 54.7014C1.73401 55.6695 3.38099 55.7484 4.34908 54.7803L9.76887 49.3605C17.2546 54.7843 26.7788 52.6864 33.7937 45.6716C41.476 37.9892 52.1387 20.4233 34.1075 0.461989C34.0463 0.37385 33.9946 0.309264 33.9545 0.269156C33.9545 0.269156 33.9616 0.284598 33.9745 0.315279C33.879 0.210242 33.7826 0.105135 33.6854 -3.199e-05C32.3224 7.08543 26.1997 10.5391 19.9032 14.001C19.9033 14.0005 19.9034 14.0002 19.9034 14.0002C19.9028 14.0007 19.9023 14.0013 19.9018 14.0018C19.8131 14.0506 19.7243 14.0994 19.6356 14.1482C15.896 16.2035 12.1181 18.2799 9.26064 21.1385C2.05409 28.3436 0.0383234 38.1997 6.03469 45.7735Z" fill="#A6D388" fill-opacity="0.5"/>
</svg>
