<svg width="264" height="39" viewBox="0 0 264 39" fill="none" xmlns="http://www.w3.org/2000/svg">
<path d="M59.0341 15.3295C58.9053 14.8523 58.7159 14.4318 58.4659 14.0682C58.2159 13.697 57.9091 13.3826 57.5455 13.125C57.1818 12.8674 56.7652 12.6742 56.2955 12.5455C55.8258 12.4091 55.3106 12.3409 54.75 12.3409C53.6212 12.3409 52.6439 12.6136 51.8182 13.1591C51 13.7045 50.3674 14.5 49.9205 15.5455C49.4735 16.5833 49.25 17.8447 49.25 19.3295C49.25 20.822 49.4659 22.0947 49.8977 23.1477C50.3295 24.2008 50.9545 25.0038 51.7727 25.5568C52.5909 26.1098 53.5833 26.3864 54.75 26.3864C55.7803 26.3864 56.6515 26.2197 57.3636 25.8864C58.0833 25.5455 58.6288 25.0644 59 24.4432C59.3712 23.822 59.5568 23.0909 59.5568 22.25L60.6023 22.375H54.9432V18.2727H64.9773V21.3523C64.9773 23.4356 64.5341 25.2197 63.6477 26.7045C62.7689 28.1894 61.5568 29.3295 60.0114 30.125C58.4735 30.9205 56.7045 31.3182 54.7045 31.3182C52.4848 31.3182 50.5341 30.8371 48.8523 29.875C47.1705 28.9129 45.8598 27.5417 44.9205 25.7614C43.9811 23.9735 43.5114 21.8523 43.5114 19.3977C43.5114 17.4886 43.7955 15.7955 44.3636 14.3182C44.9318 12.8333 45.7235 11.5758 46.7386 10.5455C47.7614 9.51515 48.9432 8.73485 50.2841 8.20454C51.6326 7.67424 53.0833 7.40909 54.6364 7.40909C55.9848 7.40909 57.2386 7.60227 58.3977 7.98864C59.5644 8.375 60.5947 8.92045 61.4886 9.625C62.3902 10.3295 63.1212 11.1667 63.6818 12.1364C64.2424 13.1061 64.5909 14.1705 64.7273 15.3295H59.0341ZM68.2926 31V13.5455H73.6903V16.7273H73.8722C74.1903 15.5758 74.7093 14.7197 75.429 14.1591C76.1487 13.5909 76.9858 13.3068 77.9403 13.3068C78.1979 13.3068 78.4631 13.3258 78.7358 13.3636C79.0085 13.3939 79.2623 13.4432 79.4972 13.5114V18.3409C79.232 18.25 78.8835 18.178 78.4517 18.125C78.0275 18.072 77.6487 18.0455 77.3153 18.0455C76.6563 18.0455 76.0616 18.1932 75.5312 18.4886C75.0085 18.7765 74.5956 19.1818 74.2926 19.7045C73.9972 20.2197 73.8494 20.8258 73.8494 21.5227V31H68.2926ZM89.0142 31.3295C87.1884 31.3295 85.6127 30.9697 84.2869 30.25C82.9688 29.5227 81.9536 28.4886 81.2415 27.1477C80.5369 25.7992 80.1847 24.197 80.1847 22.3409C80.1847 20.5379 80.5407 18.9621 81.2528 17.6136C81.965 16.2576 82.9688 15.2045 84.2642 14.4545C85.5597 13.697 87.0862 13.3182 88.8438 13.3182C90.0862 13.3182 91.2225 13.5114 92.2528 13.8977C93.2831 14.2841 94.1733 14.8561 94.9233 15.6136C95.6733 16.3712 96.2566 17.3068 96.6733 18.4205C97.09 19.5265 97.2983 20.7955 97.2983 22.2273V23.6136H82.1278V20.3864H92.1278C92.1203 19.7955 91.9801 19.2689 91.7074 18.8068C91.4347 18.3447 91.0597 17.9848 90.5824 17.7273C90.1127 17.4621 89.571 17.3295 88.9574 17.3295C88.3362 17.3295 87.7794 17.4697 87.2869 17.75C86.7945 18.0227 86.4044 18.3977 86.1165 18.875C85.8286 19.3447 85.6771 19.8788 85.6619 20.4773V23.7614C85.6619 24.4735 85.8021 25.0985 86.0824 25.6364C86.3627 26.1667 86.7604 26.5795 87.2756 26.875C87.7907 27.1705 88.4044 27.3182 89.1165 27.3182C89.6089 27.3182 90.0559 27.25 90.4574 27.1136C90.8589 26.9773 91.2036 26.7765 91.4915 26.5114C91.7794 26.2462 91.9953 25.9205 92.1392 25.5341L97.2415 25.6818C97.0294 26.8258 96.5634 27.822 95.8438 28.6705C95.1316 29.5114 94.196 30.1667 93.0369 30.6364C91.8778 31.0985 90.5369 31.3295 89.0142 31.3295ZM108.295 31.3295C106.47 31.3295 104.894 30.9697 103.568 30.25C102.25 29.5227 101.235 28.4886 100.523 27.1477C99.8182 25.7992 99.4659 24.197 99.4659 22.3409C99.4659 20.5379 99.822 18.9621 100.534 17.6136C101.246 16.2576 102.25 15.2045 103.545 14.4545C104.841 13.697 106.367 13.3182 108.125 13.3182C109.367 13.3182 110.504 13.5114 111.534 13.8977C112.564 14.2841 113.455 14.8561 114.205 15.6136C114.955 16.3712 115.538 17.3068 115.955 18.4205C116.371 19.5265 116.58 20.7955 116.58 22.2273V23.6136H101.409V20.3864H111.409C111.402 19.7955 111.261 19.2689 110.989 18.8068C110.716 18.3447 110.341 17.9848 109.864 17.7273C109.394 17.4621 108.852 17.3295 108.239 17.3295C107.617 17.3295 107.061 17.4697 106.568 17.75C106.076 18.0227 105.686 18.3977 105.398 18.875C105.11 19.3447 104.958 19.8788 104.943 20.4773V23.7614C104.943 24.4735 105.083 25.0985 105.364 25.6364C105.644 26.1667 106.042 26.5795 106.557 26.875C107.072 27.1705 107.686 27.3182 108.398 27.3182C108.89 27.3182 109.337 27.25 109.739 27.1136C110.14 26.9773 110.485 26.7765 110.773 26.5114C111.061 26.2462 111.277 25.9205 111.42 25.5341L116.523 25.6818C116.311 26.8258 115.845 27.822 115.125 28.6705C114.413 29.5114 113.477 30.1667 112.318 30.6364C111.159 31.0985 109.818 31.3295 108.295 31.3295ZM124.974 21.0455V31H119.418V13.5455H124.702V16.75H124.895C125.281 15.6818 125.94 14.8447 126.872 14.2386C127.804 13.625 128.914 13.3182 130.202 13.3182C131.429 13.3182 132.493 13.5947 133.395 14.1477C134.304 14.6932 135.009 15.4583 135.509 16.4432C136.016 17.4205 136.266 18.5644 136.259 19.875V31H130.702V20.9659C130.709 19.9962 130.463 19.2386 129.963 18.6932C129.471 18.1477 128.785 17.875 127.906 17.875C127.323 17.875 126.808 18.0038 126.361 18.2614C125.921 18.5114 125.58 18.8712 125.338 19.3409C125.103 19.8106 124.982 20.3788 124.974 21.0455ZM139.699 7.72727H146.665L152.574 22.1364H152.847L158.756 7.72727H165.722V31H160.244V16.7045H160.051L154.46 30.8523H150.96L145.369 16.625H145.176V31H139.699V7.72727ZM177.378 31.3295C175.545 31.3295 173.969 30.9545 172.651 30.2045C171.34 29.447 170.329 28.3939 169.616 27.0455C168.912 25.6894 168.56 24.1174 168.56 22.3295C168.56 20.5341 168.912 18.9621 169.616 17.6136C170.329 16.2576 171.34 15.2045 172.651 14.4545C173.969 13.697 175.545 13.3182 177.378 13.3182C179.211 13.3182 180.783 13.697 182.094 14.4545C183.412 15.2045 184.423 16.2576 185.128 17.6136C185.84 18.9621 186.196 20.5341 186.196 22.3295C186.196 24.1174 185.84 25.6894 185.128 27.0455C184.423 28.3939 183.412 29.447 182.094 30.2045C180.783 30.9545 179.211 31.3295 177.378 31.3295ZM177.412 27.1364C178.079 27.1364 178.643 26.9318 179.105 26.5227C179.567 26.1136 179.92 25.5455 180.162 24.8182C180.412 24.0909 180.537 23.25 180.537 22.2955C180.537 21.3258 180.412 20.4773 180.162 19.75C179.92 19.0227 179.567 18.4545 179.105 18.0455C178.643 17.6364 178.079 17.4318 177.412 17.4318C176.723 17.4318 176.139 17.6364 175.662 18.0455C175.192 18.4545 174.832 19.0227 174.582 19.75C174.34 20.4773 174.219 21.3258 174.219 22.2955C174.219 23.25 174.34 24.0909 174.582 24.8182C174.832 25.5455 175.192 26.1136 175.662 26.5227C176.139 26.9318 176.723 27.1364 177.412 27.1364ZM205.412 13.5455L199.423 31H193.06L187.082 13.5455H192.935L196.151 25.5682H196.332L199.56 13.5455H205.412ZM215.139 31.3295C213.313 31.3295 211.738 30.9697 210.412 30.25C209.094 29.5227 208.079 28.4886 207.366 27.1477C206.662 25.7992 206.31 24.197 206.31 22.3409C206.31 20.5379 206.666 18.9621 207.378 17.6136C208.09 16.2576 209.094 15.2045 210.389 14.4545C211.685 13.697 213.211 13.3182 214.969 13.3182C216.211 13.3182 217.348 13.5114 218.378 13.8977C219.408 14.2841 220.298 14.8561 221.048 15.6136C221.798 16.3712 222.382 17.3068 222.798 18.4205C223.215 19.5265 223.423 20.7955 223.423 22.2273V23.6136H208.253V20.3864H218.253C218.245 19.7955 218.105 19.2689 217.832 18.8068C217.56 18.3447 217.185 17.9848 216.707 17.7273C216.238 17.4621 215.696 17.3295 215.082 17.3295C214.461 17.3295 213.904 17.4697 213.412 17.75C212.92 18.0227 212.529 18.3977 212.241 18.875C211.954 19.3447 211.802 19.8788 211.787 20.4773V23.7614C211.787 24.4735 211.927 25.0985 212.207 25.6364C212.488 26.1667 212.885 26.5795 213.401 26.875C213.916 27.1705 214.529 27.3182 215.241 27.3182C215.734 27.3182 216.181 27.25 216.582 27.1136C216.984 26.9773 217.329 26.7765 217.616 26.5114C217.904 26.2462 218.12 25.9205 218.264 25.5341L223.366 25.6818C223.154 26.8258 222.688 27.822 221.969 28.6705C221.257 29.5114 220.321 30.1667 219.162 30.6364C218.003 31.0985 216.662 31.3295 215.139 31.3295ZM229.386 31.3295C228.568 31.3295 227.867 31.0417 227.284 30.4659C226.708 29.8902 226.424 29.1932 226.432 28.375C226.424 27.572 226.708 26.8864 227.284 26.3182C227.867 25.7424 228.568 25.4545 229.386 25.4545C230.159 25.4545 230.841 25.7424 231.432 26.3182C232.03 26.8864 232.333 27.572 232.341 28.375C232.333 28.9205 232.189 29.4167 231.909 29.8636C231.636 30.3106 231.277 30.6667 230.83 30.9318C230.39 31.197 229.909 31.3295 229.386 31.3295ZM236.011 31V13.5455H241.568V31H236.011ZM238.795 11.5114C238.015 11.5114 237.345 11.2538 236.784 10.7386C236.223 10.2159 235.943 9.58712 235.943 8.85227C235.943 8.125 236.223 7.50379 236.784 6.98864C237.345 6.46591 238.015 6.20454 238.795 6.20454C239.583 6.20454 240.254 6.46591 240.807 6.98864C241.367 7.50379 241.648 8.125 241.648 8.85227C241.648 9.58712 241.367 10.2159 240.807 10.7386C240.254 11.2538 239.583 11.5114 238.795 11.5114ZM253.253 31.3295C251.42 31.3295 249.844 30.9545 248.526 30.2045C247.215 29.447 246.204 28.3939 245.491 27.0455C244.787 25.6894 244.435 24.1174 244.435 22.3295C244.435 20.5341 244.787 18.9621 245.491 17.6136C246.204 16.2576 247.215 15.2045 248.526 14.4545C249.844 13.697 251.42 13.3182 253.253 13.3182C255.086 13.3182 256.658 13.697 257.969 14.4545C259.287 15.2045 260.298 16.2576 261.003 17.6136C261.715 18.9621 262.071 20.5341 262.071 22.3295C262.071 24.1174 261.715 25.6894 261.003 27.0455C260.298 28.3939 259.287 29.447 257.969 30.2045C256.658 30.9545 255.086 31.3295 253.253 31.3295ZM253.287 27.1364C253.954 27.1364 254.518 26.9318 254.98 26.5227C255.442 26.1136 255.795 25.5455 256.037 24.8182C256.287 24.0909 256.412 23.25 256.412 22.2955C256.412 21.3258 256.287 20.4773 256.037 19.75C255.795 19.0227 255.442 18.4545 254.98 18.0455C254.518 17.6364 253.954 17.4318 253.287 17.4318C252.598 17.4318 252.014 17.6364 251.537 18.0455C251.067 18.4545 250.707 19.0227 250.457 19.75C250.215 20.4773 250.094 21.3258 250.094 22.2955C250.094 23.25 250.215 24.0909 250.457 24.8182C250.707 25.5455 251.067 26.1136 251.537 26.5227C252.014 26.9318 252.598 27.1364 253.287 27.1364Z" fill="#1F1F1F"/>
<path d="M19.6511 23.154C16.7718 22.8018 15.5066 21.1833 12.9763 17.9518C16.21 15.4236 17.8273 14.1584 20.7078 14.5095C23.5914 14.8628 26.2941 16.6547 27.3826 19.7117C25.5918 22.4176 22.5337 23.503 19.6511 23.154ZM13.3104 32.5326C10.5981 32.3336 9.33827 30.8801 6.82177 27.9699C9.73197 25.4545 11.1865 24.1957 13.8999 24.3904C16.6143 24.5872 19.2298 26.1397 20.3885 28.952C18.8361 31.5675 16.0259 32.7273 13.3104 32.5326V32.5326ZM6.69195 15.8194C8.11566 17.5549 7.95925 19.1361 7.64748 22.2974C4.48722 21.9846 2.90602 21.8292 1.48125 20.0937C0.0564698 18.355 -0.49897 15.9066 0.52572 13.6157C2.97412 13.0582 5.26717 14.0828 6.69195 15.8194V15.8194ZM29.1607 10.0224C26.5697 11.1077 24.7342 10.3565 21.06 8.85511C22.5613 5.18091 23.3136 3.34328 25.9004 2.25474C28.4903 1.16834 31.6229 1.37583 34 3.42095C33.7936 6.55355 31.7474 8.93385 29.1607 10.0224V10.0224ZM15.5928 6.24178C16.5228 9.29457 15.4609 11.2876 13.3381 15.2735C9.35317 13.1497 7.35912 12.0877 6.42806 9.03388C5.49595 5.97789 6.09289 2.45798 8.68174 0C12.2017 0.596938 14.6607 3.18473 15.5928 6.24178V6.24178Z" fill="#77B255"/>
<path d="M6.42809 9.0339C7.34531 12.0431 9.30318 13.1231 13.1721 15.1852V15.1799C13.0976 12.4974 10.264 3.60719 8.63176 0.0553589C6.08971 2.51121 5.50235 6.00027 6.42809 9.0339ZM0.477859 13.7466C-0.469155 16.0003 0.0830925 18.3881 1.48127 20.0937C2.90711 21.8303 4.4883 21.9846 7.6475 22.2974C6.58663 20.2363 2.4219 15.5002 0.477859 13.7466Z" fill="#A6D388"/>
<path d="M20.7077 14.5095C17.9805 14.1776 16.3695 15.3076 13.4636 17.573C15.3214 17.6847 22.8124 18.3657 27.3602 19.7405C27.3666 19.7298 27.3762 19.7224 27.3826 19.7117C26.294 16.6547 23.5913 14.8628 20.7077 14.5095ZM20.3842 28.9435C19.2234 26.1376 16.6122 24.5873 13.8999 24.3904C11.2397 24.1999 9.78195 25.413 6.9856 27.8295C9.92985 27.5049 15.397 26.9037 20.3842 28.9435Z" fill="#5C913B"/>
<path d="M21.2515 8.93279C24.7916 10.3788 26.6175 11.0864 29.1596 10.0224C31.7335 8.93917 33.7691 6.57589 33.9925 3.46777C29.8193 4.27752 22.9359 7.88362 21.2515 8.93279V8.93279Z" fill="#A6D388"/>
<path d="M2.44956 36.5175C1.82814 36.4207 0.999241 35.6333 1.09501 35.0108C1.67598 31.2206 4.13609 22.0633 20.5652 8.67C21.0525 8.27097 21.6037 7.96878 22.0166 8.44441C22.4326 8.92005 21.9612 9.45527 21.4867 9.86919C7.34743 22.1804 4.97883 31.9314 4.43722 35.4758C4.34039 36.0983 3.07203 36.6112 2.44956 36.5175V36.5175Z" fill="#A06253"/>
</svg>
