<svg xmlns="http://www.w3.org/2000/svg" width="396" height="396" fill="none" xmlns:v="https://vecta.io/nano"><g clip-path="url(#A)"><circle cx="197.5" cy="137.5" r="57.5" fill="#fff"/><path d="M197.849 0C122.131 0 60.531 61.609 60.531 137.329c0 72.887 124.591 243.177 129.896 250.388l4.951 6.738a3.06 3.06 0 0 0 1.085.923c.43.218.904.332 1.386.332s.961-.112 1.393-.33a3.09 3.09 0 0 0 1.093-.925l4.948-6.738c5.308-7.211 129.896-177.501 129.896-250.388C335.179 61.609 273.569 0 197.849 0zm0 88.138c27.13 0 49.191 22.062 49.191 49.191 0 27.115-22.062 49.191-49.191 49.191-27.114 0-49.191-22.076-49.191-49.191 0-27.129 22.076-49.191 49.191-49.191z" fill="#000"/></g><defs><clipPath id="A"><path fill="#fff" d="M0 0h395.71v395.71H0z"/></clipPath></defs></svg>