<?xml version="1.0" standalone="no"?>
<!DOCTYPE svg PUBLIC "-//W3C//DTD SVG 20010904//EN"
 "http://www.w3.org/TR/2001/REC-SVG-20010904/DTD/svg10.dtd">
<svg version="1.0" xmlns="http://www.w3.org/2000/svg"
 width="700.000000pt" height="700.000000pt" viewBox="0 0 700.000000 700.000000"
 preserveAspectRatio="xMidYMid meet">
<metadata>
Created by potrace 1.14, written by Peter Selinger 2001-2017
</metadata>
<g transform="translate(0.000000,700.000000) scale(0.100000,-0.100000)"
fill="#000000" stroke="none">
<path d="M1949 6689 c-122 -128 -226 -291 -299 -469 -31 -76 -76 -228 -85
-290 -2 -19 -9 -62 -14 -95 -10 -62 -7 -366 5 -445 12 -87 62 -269 99 -361 97
-244 238 -414 492 -594 109 -77 383 -237 604 -352 l76 -40 -139 -144 c-299
-309 -524 -561 -728 -814 l-112 -139 6 64 c23 258 17 459 -19 595 -64 247
-289 503 -560 638 -153 76 -327 115 -495 111 -97 -2 -209 -18 -221 -32 -11
-12 -48 -118 -65 -189 -25 -103 -30 -319 -10 -425 43 -230 152 -442 309 -602
137 -139 289 -216 512 -260 87 -16 105 -19 240 -36 50 -6 101 -13 115 -15 14
-2 36 -4 48 -4 l24 -1 -30 -37 c-85 -109 -293 -418 -390 -579 -296 -494 -467
-889 -588 -1354 -24 -93 -61 -304 -59 -335 8 -109 146 -234 263 -240 86 -4
215 45 282 107 34 31 47 62 60 138 31 188 100 461 167 660 77 228 236 610 254
610 4 0 12 -6 16 -14 4 -7 31 -40 60 -72 28 -33 61 -70 73 -84 112 -132 304
-324 404 -403 108 -86 265 -168 366 -192 133 -32 179 -38 310 -39 147 -1 242
7 315 25 22 5 53 12 69 15 159 30 433 180 569 311 108 104 227 258 227 292 0
9 -16 48 -36 86 -169 327 -463 567 -819 670 -244 70 -524 73 -718 6 -140 -48
-309 -150 -492 -294 -49 -39 -92 -74 -95 -77 -3 -3 -34 -30 -70 -60 -36 -30
-70 -59 -76 -65 -6 -5 -28 -25 -48 -43 -21 -19 -40 -32 -42 -29 -10 10 187
379 324 607 127 210 417 633 524 765 9 11 70 88 136 171 66 84 125 154 130
158 5 3 31 -22 58 -57 27 -34 54 -69 61 -77 368 -465 593 -641 913 -710 419
-91 864 7 1200 266 115 88 300 295 300 335 0 35 -125 265 -194 356 -212 280
-489 455 -851 538 -149 34 -375 43 -495 20 -201 -40 -385 -129 -637 -311 -57
-41 -103 -71 -103 -66 0 7 10 18 248 269 124 131 395 403 502 505 83 78 257
238 278 256 104 90 177 156 236 215 45 45 74 67 85 64 9 -3 81 -31 161 -62
213 -82 365 -125 535 -150 65 -9 220 -7 287 5 391 69 781 353 976 711 75 140
136 333 148 475 l6 71 -43 35 c-160 129 -354 219 -572 265 -123 26 -415 24
-542 -4 -11 -2 -31 -6 -45 -9 -55 -10 -241 -76 -311 -110 -292 -142 -460 -355
-673 -853 l-73 -171 -61 -38 c-47 -29 -326 -251 -386 -307 -6 -6 -63 -56 -126
-110 -142 -123 -272 -238 -415 -369 -95 -88 -151 -141 -335 -316 -68 -65 -70
-63 -25 21 40 73 202 400 239 484 132 293 173 568 122 830 -12 62 -14 72 -36
145 -107 361 -342 683 -650 888 -146 97 -376 193 -530 221 l-55 10 -66 -70z"/>
</g>
</svg>
